<svg width="49" height="29" viewBox="0 0 49 29" fill="none" xmlns="http://www.w3.org/2000/svg">
<path d="M9.86505 25.3842L12.4199 27.939H0.809017L14.5285 0.5H39.6961C44.3282 0.5 48.0833 4.25508 48.0833 8.8872C48.0833 13.5193 44.3282 17.2744 39.6961 17.2744H36.1413H34.9342L35.7877 18.128L45.5988 27.939H23.6067L23.6067 3.55488V3.05488H23.1067H16.5894H16.2804L16.1422 3.33127L5.47759 24.6606L5.11578 25.3842H5.9248H9.86505ZM26.1616 8.29472V8.50183L26.308 8.64827L32.2328 14.5731L32.3793 14.7195H32.5864H39.6961C42.9172 14.7195 45.5284 12.1083 45.5284 8.88719C45.5284 5.66609 42.9172 3.05487 39.6961 3.05487H26.6616H26.1616V3.55487V8.29472ZM27.0151 13.2735L26.1616 12.4199V13.627V24.8841V25.3841H26.6616H37.9187H39.1258L38.2722 24.5306L27.0151 13.2735Z" fill="white" stroke="white"/>
</svg>
